<svg width="64" height="64" fill="none" xmlns="http://www.w3.org/2000/svg"><g clip-path="url(#a)"><path d="M53.072 33.875a5.634 5.634 0 0 0 5.303 3.75A5.631 5.631 0 0 0 64 32a5.631 5.631 0 0 0-5.625-5.625 5.634 5.634 0 0 0-5.303 3.75H38.75v-5h12.125c.439 0 .863-.154 1.2-.435l3.428-2.856a5.59 5.59 0 0 0 2.872.791A5.631 5.631 0 0 0 64 17a5.631 5.631 0 0 0-5.625-5.625A5.631 5.631 0 0 0 52.75 17c0 .687.124 1.345.35 1.954l-2.904 2.421H38.75V7.625h5.572a5.634 5.634 0 0 0 5.303 3.75A5.631 5.631 0 0 0 55.25 5.75 5.631 5.631 0 0 0 49.625.125a5.634 5.634 0 0 0-5.303 3.75H38.75V2c0-1.035-.84-1.875-1.875-1.875h-10C25.84.125 25 .965 25 2v2.734a27.769 27.769 0 0 0-7.55 3.118l-1.927-1.927a1.875 1.875 0 0 0-2.652 0l-7.07 7.071a1.875 1.875 0 0 0 0 2.652l1.926 1.927a27.77 27.77 0 0 0-3.118 7.55H1.875C.84 25.125 0 25.965 0 27v10c0 1.035.84 1.875 1.875 1.875h2.734a27.771 27.771 0 0 0 3.118 7.55L5.8 48.352a1.875 1.875 0 0 0 0 2.651l7.071 7.071c.733.732 1.92.732 2.652 0l1.927-1.926A27.76 27.76 0 0 0 25 59.266V62c0 1.035.84 1.875 1.875 1.875h10c1.035 0 1.875-.84 1.875-1.875v-1.875h5.572a5.634 5.634 0 0 0 5.303 3.75 5.631 5.631 0 0 0 5.625-5.625 5.631 5.631 0 0 0-5.625-5.625 5.634 5.634 0 0 0-5.303 3.75H38.75v-13.75h11.446l2.905 2.42A5.596 5.596 0 0 0 52.75 47a5.631 5.631 0 0 0 5.625 5.625A5.631 5.631 0 0 0 64 47a5.631 5.631 0 0 0-5.625-5.625 5.59 5.59 0 0 0-2.872.791l-3.428-2.856a1.875 1.875 0 0 0-1.2-.435H38.75v-5h14.322Zm5.303-3.75c1.034 0 1.875.841 1.875 1.875a1.877 1.877 0 0 1-1.875 1.875A1.877 1.877 0 0 1 56.5 32c0-1.034.841-1.875 1.875-1.875Zm0-15c1.034 0 1.875.841 1.875 1.875a1.877 1.877 0 0 1-1.875 1.875A1.877 1.877 0 0 1 56.5 17c0-1.034.841-1.875 1.875-1.875Zm-8.75-11.25c1.034 0 1.875.841 1.875 1.875a1.877 1.877 0 0 1-1.875 1.875A1.877 1.877 0 0 1 47.75 5.75c0-1.034.841-1.875 1.875-1.875Zm0 52.5c1.034 0 1.875.841 1.875 1.875a1.877 1.877 0 0 1-1.875 1.875 1.877 1.877 0 0 1-1.875-1.875c0-1.034.841-1.875 1.875-1.875Zm8.75-11.25c1.034 0 1.875.841 1.875 1.875a1.877 1.877 0 0 1-1.875 1.875A1.877 1.877 0 0 1 56.5 47c0-1.034.841-1.875 1.875-1.875ZM35 44.735a12.89 12.89 0 0 1-3.125.39c-7.237 0-13.125-5.888-13.125-13.125s5.888-13.125 13.125-13.125c1.046 0 2.092.133 3.125.39v25.47Zm-6.25 15.39v-2.364c0-.899-.637-1.67-1.52-1.841a24.112 24.112 0 0 1-8.992-3.715 1.875 1.875 0 0 0-2.376.228l-1.665 1.664-4.419-4.42 1.664-1.664c.636-.635.73-1.632.227-2.376a24.117 24.117 0 0 1-3.714-8.992 1.875 1.875 0 0 0-1.841-1.52H3.75v-6.25h2.364c.899 0 1.67-.637 1.841-1.52a24.114 24.114 0 0 1 3.714-8.992 1.875 1.875 0 0 0-.227-2.376l-1.664-1.665 4.42-4.419 1.663 1.664c.636.636 1.633.731 2.377.227A24.115 24.115 0 0 1 27.23 8.08a1.875 1.875 0 0 0 1.52-1.841V3.875H35v11.55a16.553 16.553 0 0 0-3.125-.3C22.57 15.125 15 22.695 15 32s7.57 16.875 16.875 16.875c1.046 0 2.09-.1 3.125-.3v11.55h-6.25Z" fill="#55B570"/></g><defs><clipPath id="a"><path fill="#fff" d="M0 0h64v64H0z"/></clipPath></defs></svg>