<svg width="1310" height="548" fill="none" xmlns="http://www.w3.org/2000/svg"><circle cx="775" cy="150" r="3" fill="#fff"/><circle cx="987" cy="177" r="3" fill="#fff"/><circle cx="1199" cy="204" r="3" fill="#fff"/><circle cx="1307" cy="97" r="3" fill="#fff"/><circle cx="1115" cy="55" r="3" fill="#fff"/><circle cx="923" cy="13" r="3" fill="#fff"/><circle cx="1301" cy="171" r="3" fill="#fff"/><circle cx="1199" cy="326" r="3" fill="#fff"/><circle cx="1097" cy="481" r="3" fill="#fff"/><circle cx="1015" cy="299" r="3" fill="#fff"/><circle cx="1285" cy="433" r="3" fill="#fff"/><circle cx="708" cy="61" r="3" fill="#fff"/><circle cx="210" cy="320" r="3" fill="#fff"/><circle cx="3" cy="465" r="3" fill="#fff"/><circle cx="52" cy="304" r="3" fill="#fff"/><circle cx="6" cy="156" r="3" fill="#fff"/><circle cx="185" cy="78" r="3" fill="#fff"/><circle cx="364" cy="3" r="3" fill="#fff"/><circle cx="402" cy="124" r="3" fill="#fff"/><circle cx="50" cy="223" r="2" fill="#fff"/><circle cx="82" cy="73" r="2" fill="#fff"/><circle cx="296" cy="152" r="2" fill="#fff"/><circle cx="510" cy="21" r="2" fill="#fff"/><circle cx="611" cy="16" r="2" fill="#fff"/><circle cx="886" cy="107" r="2" fill="#fff"/><circle cx="1161" cy="198" r="2" fill="#fff"/><circle cx="1254" cy="96" r="2" fill="#fff"/><circle cx="1280" cy="321" r="2" fill="#fff"/><circle cx="1306" cy="546" r="2" fill="#fff"/><circle cx="857" cy="332" r="2" fill="#fff"/><circle cx="586" cy="331" r="2" fill="#fff"/><path stroke="#fff" stroke-opacity=".5" stroke-width=".5" d="m6.212 152.867 44 70M50.25 222.994l2 81M295.936 151.758l106-28M1161.04 197.753l38 6M1198.92 203.762l102-33M1254 95.75l53 1M1198.98 325.75l81-5M1199.19 325.843l86 107M1280.25 320.989l5 112M708.2 60.85l67 89M774.91 149.767l111-43M82.012 72.75l103 5"/></svg>