<svg width="65" height="65" fill="none" xmlns="http://www.w3.org/2000/svg"><g clip-path="url(#a)" fill="#2E9ADB"><path d="m64.438 14.054-3.78-3.77 3.836-4.164c1.124-1.22.254-3.195-1.4-3.195H48.28v-1.02a1.904 1.904 0 0 0-3.809 0V24.12H37.6a1.904 1.904 0 0 0-1.904 1.904V39.01H20.048a1.904 1.904 0 0 0-1.905 1.904v8.76H2.495a1.904 1.904 0 0 0-1.904 1.904v11.518c0 1.051.853 1.904 1.904 1.904h52.98a1.904 1.904 0 0 0 1.904-1.904v-37.07a1.904 1.904 0 0 0-1.904-1.905H48.28v-6.814h14.814c1.693 0 2.545-2.056 1.344-3.253ZM4.4 53.483h13.743v7.708H4.4v-7.708Zm17.552-10.664h13.743V61.19H21.952V42.818ZM53.57 61.19H39.504V27.93H53.57V61.19Zm3.1-49.502 1.816 1.81H48.28V6.733h10.47L56.616 9.05a1.904 1.904 0 0 0 .056 2.64Z"/><path d="M2.647 39.937c6.7-2.834 12.727-6.901 17.913-12.087a56.268 56.268 0 0 0 10.386-14.262l1.37 2.762a1.904 1.904 0 1 0 3.412-1.693l-3.13-6.31a1.907 1.907 0 0 0-2.097-1.017l-6.773 1.426a1.904 1.904 0 0 0 .39 3.768c.265 0 .094.022 3.443-.683a52.48 52.48 0 0 1-9.694 13.316A52.386 52.386 0 0 1 1.163 36.429a1.904 1.904 0 0 0 1.484 3.508Z"/></g><defs><clipPath id="a"><path fill="#fff" d="M0 0h65v65H0z"/></clipPath></defs></svg>