<svg width="20" height="20" fill="none" xmlns="http://www.w3.org/2000/svg"><g clip-path="url(#a)"><path d="M16.875 6.25a1.854 1.854 0 0 0-.625.115V6.25a6.21 6.21 0 0 0-1.146-3.595l1.588-1.589-.883-.883-1.527 1.526a6.218 6.218 0 0 0-8.563 0L4.192.183l-.884.883 1.588 1.589A6.21 6.21 0 0 0 3.75 6.25v.115a1.854 1.854 0 0 0-.625-.115c-1.036 0-1.875.84-1.875 1.875v5C1.25 14.16 2.09 15 3.125 15c.213-.002.425-.041.625-.115v1.365h1.875V20h3.75v-3.75h1.25V20h3.75v-3.75h1.875v-1.365c.2.074.412.113.625.115 1.036 0 1.875-.84 1.875-1.875v-5c0-1.036-.839-1.875-1.875-1.875ZM3.75 13.125a.625.625 0 1 1-1.25 0v-5a.625.625 0 1 1 1.25 0v5Zm4.375 5.625h-1.25v-2.5h1.25v2.5Zm5 0h-1.25v-2.5h1.25v2.5ZM15 15H5V7.5h10V15ZM5 6.25a5 5 0 0 1 10 0H5Zm12.5 6.875a.625.625 0 1 1-1.25 0v-5a.625.625 0 1 1 1.25 0v5Z" fill="url(#b)"/><path d="M8.75 3.75H7.5V5h1.25V3.75Z" fill="url(#c)"/><path d="M12.5 3.75h-1.25V5h1.25V3.75Z" fill="url(#d)"/></g><defs><linearGradient id="b" x1="10" y1="0" x2="4.337" y2="18.242" gradientUnits="userSpaceOnUse"><stop stop-color="#2E9ADB"/><stop offset="1" stop-color="#55B570"/></linearGradient><linearGradient id="c" x1="8.125" y1="3.749" x2="7.809" y2="4.914" gradientUnits="userSpaceOnUse"><stop stop-color="#2E9ADB"/><stop offset="1" stop-color="#55B570"/></linearGradient><linearGradient id="d" x1="11.875" y1="3.749" x2="11.559" y2="4.914" gradientUnits="userSpaceOnUse"><stop stop-color="#2E9ADB"/><stop offset="1" stop-color="#55B570"/></linearGradient><clipPath id="a"><path fill="#fff" d="M0 0h20v20H0z"/></clipPath></defs></svg>