<svg width="64" height="64" fill="none" xmlns="http://www.w3.org/2000/svg"><path d="M43.25 25.669a16.859 16.859 0 0 0-22.5 0 1.875 1.875 0 1 0 2.5 2.795 13.112 13.112 0 0 1 17.5 0 1.875 1.875 0 1 0 2.5-2.795Z" fill="url(#a)"/><path d="M37.84 30.925a9.265 9.265 0 0 0-5.848-2.046 9.3 9.3 0 0 0-5.849 2.063 1.875 1.875 0 1 0 2.364 2.911 5.464 5.464 0 0 1 3.485-1.224c1.292 0 2.503.423 3.505 1.224a1.875 1.875 0 0 0 2.342-2.928Z" fill="url(#b)"/><path d="M32 40.125a1.875 1.875 0 1 0 0-3.75 1.875 1.875 0 0 0 0 3.75Z" fill="url(#c)"/><path d="M45.75 0h-27.5a5.631 5.631 0 0 0-5.625 5.625v52.75A5.631 5.631 0 0 0 18.25 64h27.5a5.631 5.631 0 0 0 5.625-5.625V5.625A5.631 5.631 0 0 0 45.75 0Zm-8.852 3.75-1.25 3.75h-7.297l-1.25-3.75h9.797Zm10.727 54.625a1.877 1.877 0 0 1-1.875 1.875h-27.5a1.877 1.877 0 0 1-1.875-1.875V5.625c0-1.034.841-1.875 1.875-1.875h4.898l2.073 6.218A1.875 1.875 0 0 0 27 11.25h10c.807 0 1.523-.516 1.779-1.282L40.85 3.75h4.899c1.034 0 1.875.841 1.875 1.875v52.75Z" fill="url(#d)"/><path d="M35.75 52.75h-7.5a1.875 1.875 0 0 0 0 3.75h7.5a1.875 1.875 0 0 0 0-3.75Z" fill="url(#e)"/><defs><linearGradient id="a" x1="32" y1="21.366" x2="31.349" y2="28.885" gradientUnits="userSpaceOnUse"><stop stop-color="#2E9ADB"/><stop offset="1" stop-color="#55B570"/></linearGradient><linearGradient id="b" x1="31.997" y1="28.879" x2="31.4" y2="34.206" gradientUnits="userSpaceOnUse"><stop stop-color="#2E9ADB"/><stop offset="1" stop-color="#55B570"/></linearGradient><linearGradient id="c" x1="32" y1="36.375" x2="31.051" y2="39.867" gradientUnits="userSpaceOnUse"><stop stop-color="#2E9ADB"/><stop offset="1" stop-color="#55B570"/></linearGradient><linearGradient id="d" x1="32" y1="0" x2="8.096" y2="53.275" gradientUnits="userSpaceOnUse"><stop stop-color="#2E9ADB"/><stop offset="1" stop-color="#55B570"/></linearGradient><linearGradient id="e" x1="32" y1="52.75" x2="31.663" y2="56.469" gradientUnits="userSpaceOnUse"><stop stop-color="#2E9ADB"/><stop offset="1" stop-color="#55B570"/></linearGradient></defs></svg>