<svg width="64" height="64" fill="none" xmlns="http://www.w3.org/2000/svg"><path d="M59.697 17a1.875 1.875 0 1 0-2.795 2.5 13.112 13.112 0 0 1 0 17.5 1.875 1.875 0 1 0 2.795 2.5 16.859 16.859 0 0 0 0-22.5Z" fill="url(#a)"/><path d="M54.422 22.393a1.875 1.875 0 0 0-2.911 2.364 5.464 5.464 0 0 1 1.225 3.485 5.551 5.551 0 0 1-1.224 3.505 1.875 1.875 0 1 0 2.928 2.343 9.265 9.265 0 0 0 2.046-5.848 9.3 9.3 0 0 0-2.063-5.849Z" fill="url(#b)"/><path d="M16.691 39.647c.772-.69.838-1.876.148-2.647a13.112 13.112 0 0 1 0-17.5 1.875 1.875 0 0 0-2.795-2.5 16.859 16.859 0 0 0 0 22.5c.69.772 1.875.837 2.647.147Z" fill="url(#c)"/><path d="M19.317 34.107a1.875 1.875 0 1 0 2.911-2.364 5.464 5.464 0 0 1-1.224-3.485c0-1.292.423-2.503 1.224-3.505A1.875 1.875 0 0 0 19.3 22.41a9.265 9.265 0 0 0-2.046 5.848 9.3 9.3 0 0 0 2.063 5.849Z" fill="url(#d)"/><path d="M49.375 38.875h-1.306a21.93 21.93 0 0 1-1.819-8.715v-1.91c0-4.527-3.226-8.315-7.5-9.186V5.625A5.631 5.631 0 0 0 33.125 0h-27.5A5.631 5.631 0 0 0 0 5.625v52.75A5.631 5.631 0 0 0 5.625 64h27.5a5.631 5.631 0 0 0 5.625-5.625v-8.572A5.634 5.634 0 0 0 42.5 44.5v-1.875h6.875a1.875 1.875 0 0 0 0-3.75ZM24.273 3.75l-1.25 3.75h-7.297l-1.25-3.75h9.797ZM35 58.375a1.877 1.877 0 0 1-1.875 1.875h-27.5a1.877 1.877 0 0 1-1.875-1.875V5.625c0-1.034.841-1.875 1.875-1.875h4.899l2.072 6.218a1.875 1.875 0 0 0 1.779 1.282h10c.807 0 1.523-.516 1.779-1.282l2.073-6.218h4.898c1.034 0 1.875.841 1.875 1.875v13.439c-4.274.87-7.5 4.659-7.5 9.186v1.91a21.93 21.93 0 0 1-1.82 8.715h-1.305a1.875 1.875 0 0 0 0 3.75h6.875V44.5A5.634 5.634 0 0 0 35 49.803v8.572ZM38.75 44.5a1.877 1.877 0 0 1-1.875 1.875A1.877 1.877 0 0 1 35 44.5v-1.875h3.75V44.5Zm-9.034-5.625a25.69 25.69 0 0 0 1.534-8.715v-1.91a5.631 5.631 0 0 1 5.625-5.625A5.631 5.631 0 0 1 42.5 28.25v1.91c0 2.962.526 5.927 1.534 8.715H29.716Z" fill="url(#e)"/><path d="M23.125 52.75h-7.5a1.875 1.875 0 0 0 0 3.75h7.5a1.875 1.875 0 0 0 0-3.75Z" fill="url(#f)"/><defs><linearGradient id="a" x1="60.212" y1="16.375" x2="48.488" y2="30.14" gradientUnits="userSpaceOnUse"><stop stop-color="#2E9ADB"/><stop offset="1" stop-color="#55B570"/></linearGradient><linearGradient id="b" x1="53.789" y1="21.7" x2="47.772" y2="30.825" gradientUnits="userSpaceOnUse"><stop stop-color="#2E9ADB"/><stop offset="1" stop-color="#55B570"/></linearGradient><linearGradient id="c" x1="13.528" y1="16.375" x2="1.805" y2="30.139" gradientUnits="userSpaceOnUse"><stop stop-color="#2E9ADB"/><stop offset="1" stop-color="#55B570"/></linearGradient><linearGradient id="d" x1="19.951" y1="21.707" x2="13.934" y2="30.832" gradientUnits="userSpaceOnUse"><stop stop-color="#2E9ADB"/><stop offset="1" stop-color="#55B570"/></linearGradient><linearGradient id="e" x1="25.625" y1="0" x2="6.154" y2="57.394" gradientUnits="userSpaceOnUse"><stop stop-color="#2E9ADB"/><stop offset="1" stop-color="#55B570"/></linearGradient><linearGradient id="f" x1="19.375" y1="52.75" x2="19.038" y2="56.469" gradientUnits="userSpaceOnUse"><stop stop-color="#2E9ADB"/><stop offset="1" stop-color="#55B570"/></linearGradient></defs></svg>