<svg width="64" height="64" fill="none" xmlns="http://www.w3.org/2000/svg"><g clip-path="url(#a)"><path d="M54 19.999a5.932 5.932 0 0 0-2 .368v-.368a19.87 19.87 0 0 0-3.668-11.505l5.082-5.082L50.586.584l-4.884 4.884c-7.678-7.29-19.722-7.29-27.4 0L13.412.584l-2.828 2.828 5.082 5.082A19.872 19.872 0 0 0 12 20v.368a5.93 5.93 0 0 0-2-.368 6 6 0 0 0-6 6v16a6 6 0 0 0 6 6 5.935 5.935 0 0 0 2-.367V52h6v12h12V52h4v12H46V52h6v-4.368c.64.236 1.318.36 2 .368a6 6 0 0 0 6-6V25.998a6 6 0 0 0-6-6Zm-42 22a2 2 0 1 1-4 0V26a2 2 0 1 1 4 0v16Zm14 18h-4v-8h4v8Zm16 0h-4v-8h4v8Zm6-12H16V24h32v24ZM16 20c0-8.837 7.163-16 16-16s16 7.163 16 16H16Zm40 22a2 2 0 1 1-4 0V26a2 2 0 1 1 4 0v16Z" fill="url(#b)"/><path d="M28 11.998h-4v4h4v-4Z" fill="url(#c)"/><path d="M40 11.998h-4v4h4v-4Z" fill="url(#d)"/></g><defs><linearGradient id="b" x1="32" y1="0" x2="13.877" y2="58.373" gradientUnits="userSpaceOnUse"><stop stop-color="#2E9ADB"/><stop offset="1" stop-color="#55B570"/></linearGradient><linearGradient id="c" x1="26" y1="11.998" x2="24.988" y2="15.723" gradientUnits="userSpaceOnUse"><stop stop-color="#2E9ADB"/><stop offset="1" stop-color="#55B570"/></linearGradient><linearGradient id="d" x1="38" y1="11.998" x2="36.988" y2="15.723" gradientUnits="userSpaceOnUse"><stop stop-color="#2E9ADB"/><stop offset="1" stop-color="#55B570"/></linearGradient><clipPath id="a"><path fill="#fff" d="M0 0h64v64H0z"/></clipPath></defs></svg>