<svg width="65" height="65" fill="none" xmlns="http://www.w3.org/2000/svg"><g clip-path="url(#a)" fill="#2E9ADB"><path d="M61.467 21.902H3.533A3.537 3.537 0 0 0 0 25.435v31.793a3.537 3.537 0 0 0 3.533 3.533h57.934A3.537 3.537 0 0 0 65 57.228V25.435a3.537 3.537 0 0 0-3.533-3.533Zm-.706 34.62H4.239v-30.38h56.522v30.38Z"/><path d="M9.891 21.902a2.12 2.12 0 0 0-2.12 2.12v2.12a2.796 2.796 0 0 1-2.825 2.826H2.12a2.12 2.12 0 1 0 0 4.239h2.826a7.073 7.073 0 0 0 7.065-7.065v-2.12a2.12 2.12 0 0 0-2.12-2.12ZM62.88 28.967h-2.12a2.796 2.796 0 0 1-2.825-2.826v-2.12a2.12 2.12 0 1 0-4.24 0v2.12a7.073 7.073 0 0 0 7.066 7.065h2.12a2.12 2.12 0 1 0 0-4.239ZM4.946 49.456H2.12a2.12 2.12 0 1 0 0 4.24h2.826a2.796 2.796 0 0 1 2.826 2.826v2.12a2.12 2.12 0 1 0 4.239 0v-2.12c0-3.896-3.17-7.066-7.065-7.066ZM62.88 49.456h-2.826a7.073 7.073 0 0 0-7.065 7.066v2.12a2.12 2.12 0 1 0 4.24 0v-2.12a2.796 2.796 0 0 1 2.825-2.826h2.827a2.12 2.12 0 1 0 0-4.24ZM57.228 12.717H7.772a2.12 2.12 0 1 0 0 4.24h49.456a2.12 2.12 0 1 0 0-4.24ZM50.87 4.24H14.13a2.12 2.12 0 1 0 0 4.238h36.74a2.12 2.12 0 1 0 0-4.239ZM32.5 29.604c-6.428 0-11.658 5.229-11.658 11.657S26.072 52.92 32.5 52.92c6.428 0 11.658-5.23 11.658-11.658 0-6.428-5.23-11.658-11.658-11.658Zm0 19.075c-4.09 0-7.419-3.327-7.419-7.418 0-4.09 3.328-7.42 7.419-7.42 4.09 0 7.419 3.33 7.419 7.42s-3.328 7.418-7.419 7.418Z"/></g><defs><clipPath id="a"><path fill="#fff" d="M0 0h65v65H0z"/></clipPath></defs></svg>