<svg width="65" height="65" fill="none" xmlns="http://www.w3.org/2000/svg"><path d="M58.356 10.525 33.474.195a2.539 2.539 0 0 0-1.948 0L6.644 10.524a2.539 2.539 0 0 0-1.566 2.345V25.43a42.52 42.52 0 0 0 26.463 39.383 2.54 2.54 0 0 0 1.918 0 42.521 42.521 0 0 0 26.463-39.383V12.87a2.539 2.539 0 0 0-1.566-2.345ZM54.844 25.43c0 14.7-8.633 28.233-22.344 34.274-13.345-5.88-22.344-19.175-22.344-34.274V14.565L32.5 5.288l22.344 9.277V25.43Zm-25.15 8.558 10.913-10.913a2.539 2.539 0 1 1 3.59 3.59L31.49 39.375c-.992.991-2.6.99-3.59 0l-7.097-7.096a2.539 2.539 0 1 1 3.591-3.591l5.3 5.3Z" fill="#2E9ADB"/></svg>