<svg width="30" height="30" viewBox="0 0 30 30" fill="none" xmlns="http://www.w3.org/2000/svg">
<path fill-rule="evenodd" clip-rule="evenodd" d="M10.4354 15L1.28232 5.84696C0.0218298 4.58647 0.0218296 2.54281 1.28232 1.28232C2.54281 0.0218296 4.58647 0.0218309 5.84696 1.28232L15 10.4354L24.153 1.28232C25.4135 0.0218303 27.4572 0.0218296 28.7177 1.28232C29.9782 2.54281 29.9782 4.58647 28.7177 5.84696L19.5646 15L28.7177 24.153C29.9782 25.4135 29.9782 27.4572 28.7177 28.7177C27.4572 29.9782 25.4135 29.9782 24.153 28.7177L15 19.5646L5.84696 28.7177C4.58647 29.9782 2.54281 29.9782 1.28232 28.7177C0.0218297 27.4572 0.0218316 25.4135 1.28232 24.153L10.4354 15Z" fill="white"/>
</svg>
